<svg width="32" height="32" viewBox="0 0 32 32" fill="none" xmlns="http://www.w3.org/2000/svg">
<path d="M31.6308 26C31.6308 26.6504 31.3852 27.2032 30.8939 27.6585L27.3152 30.9756C26.824 31.4309 26.2275 31.6585 25.5258 31.6585C24.8241 31.6585 24.2276 31.4309 23.7364 30.9756L15.9999 23.8049L8.26349 30.9756C7.77228 31.4309 7.17582 31.6585 6.4741 31.6585C5.77238 31.6585 5.17592 31.4309 4.68472 30.9756L1.10595 27.6585C0.614743 27.2032 0.369141 26.6504 0.369141 26C0.369141 25.3496 0.614743 24.7967 1.10595 24.3415L8.84241 17.1707L1.10595 10C0.614743 9.54471 0.369141 8.99187 0.369141 8.34146C0.369141 7.69105 0.614743 7.13821 1.10595 6.68292L4.68472 3.36585C5.17592 2.91056 5.77238 2.68292 6.4741 2.68292C7.17582 2.68292 7.77228 2.91056 8.26349 3.36585L15.9999 10.5366L23.7364 3.36585C24.2276 2.91056 24.8241 2.68292 25.5258 2.68292C26.2275 2.68292 26.824 2.91056 27.3152 3.36585L30.8939 6.68292C31.3852 7.13821 31.6308 7.69105 31.6308 8.34146C31.6308 8.99187 31.3852 9.54471 30.8939 10L23.1575 17.1707L30.8939 24.3415C31.3852 24.7967 31.6308 25.3496 31.6308 26Z" fill="#EFF1F3"/>
</svg>
