<svg width="99" height="99" viewBox="0 0 99 99" fill="none" xmlns="http://www.w3.org/2000/svg">
<path d="M77.2613 22.3163L71.9813 26.4413L49.5 43.1475L27.0188 26.2763L21.7388 22.1513C20.4949 21.1223 18.9765 20.4808 17.3716 20.3064C15.7667 20.1319 14.1459 20.4322 12.71 21.1699C11.2741 21.9076 10.0862 23.0504 9.29342 24.4566C8.50065 25.8629 8.13788 27.4708 8.25004 29.0813V76.89C8.25004 78.3779 8.8411 79.8048 9.89318 80.8569C10.9453 81.909 12.3722 82.5 13.86 82.5H27.0188V50.655L49.5 67.5263L71.9813 50.655V82.5H85.14C86.6279 82.5 88.0548 81.909 89.1069 80.8569C90.159 79.8048 90.75 78.3779 90.75 76.89V29.0813C90.8275 27.4847 90.4395 25.9001 89.6332 24.5199C88.8269 23.1398 87.6371 22.0236 86.2083 21.307C84.7795 20.5904 83.1733 20.3043 81.585 20.4835C79.9966 20.6627 78.4945 21.2994 77.2613 22.3163Z" fill="#EFF1F3"/>
</svg>
