<svg width="99" height="99" viewBox="0 0 99 99" fill="none" xmlns="http://www.w3.org/2000/svg">
<path fill-rule="evenodd" clip-rule="evenodd" d="M4.125 11.7068C4.125 9.69596 4.92379 7.76751 6.34564 6.34565C7.7675 4.9238 9.69595 4.12501 11.7068 4.12501H87.285C88.2815 4.12338 89.2685 4.31832 90.1896 4.69866C91.1106 5.079 91.9476 5.63728 92.6526 6.34152C93.3577 7.04577 93.9169 7.88216 94.2982 8.8028C94.6795 9.72344 94.8755 10.7103 94.875 11.7068V87.285C94.8761 88.2817 94.6806 89.2688 94.2999 90.1899C93.9191 91.111 93.3604 91.948 92.6558 92.6529C91.9512 93.3579 91.1146 93.917 90.1937 94.2983C89.2728 94.6796 88.2858 94.8755 87.2891 94.875H11.7068C10.7108 94.875 9.72452 94.6788 8.80439 94.2975C7.88426 93.9162 7.04827 93.3574 6.34419 92.6529C5.6401 91.9484 5.08172 91.1121 4.70094 90.1918C4.32017 89.2715 4.12446 88.2851 4.125 87.2891V11.7068ZM40.0455 38.7255H52.3339V44.8965C54.1076 41.349 58.6451 38.1563 65.4637 38.1563C78.5359 38.1563 81.6338 45.2224 81.6338 58.1873V82.203H68.4049V61.1408C68.4049 53.757 66.6311 49.5908 62.1266 49.5908C55.8773 49.5908 53.2785 54.0829 53.2785 61.1408V82.203H40.0455V38.7255ZM17.358 81.6379H30.591V38.1563H17.358V81.6338V81.6379ZM32.4844 23.9745C32.5093 25.1075 32.3077 26.2341 31.8914 27.2882C31.475 28.3422 30.8523 29.3025 30.0598 30.1126C29.2673 30.9228 28.321 31.5665 27.2764 32.0059C26.2317 32.4454 25.1099 32.6717 23.9766 32.6717C22.8433 32.6717 21.7214 32.4454 20.6768 32.0059C19.6321 31.5665 18.6858 30.9228 17.8933 30.1126C17.1008 29.3025 16.4781 28.3422 16.0618 27.2882C15.6454 26.2341 15.4438 25.1075 15.4688 23.9745C15.5177 21.7505 16.4356 19.6341 18.0258 18.0786C19.616 16.523 21.7521 15.652 23.9766 15.652C26.2011 15.652 28.3372 16.523 29.9273 18.0786C31.5175 19.6341 32.4354 21.7505 32.4844 23.9745Z" fill="#EFF1F3"/>
</svg>
